<svg width="101" height="76" viewBox="0 0 101 76" fill="none" xmlns="http://www.w3.org/2000/svg">
<g id="rt copy 1">
<g id="Group">
<path id="Vector" d="M40.9508 5.24264C51.9841 5.24264 63.0175 5.23557 74.0508 5.25679C74.9207 5.25914 75.8566 5.28744 76.6488 5.59627C78.6173 6.36248 79.3482 8.00804 79.3482 10.0355C79.3482 16.8135 79.3505 23.5891 79.3458 30.367C79.3458 31.7226 79.2798 33.0782 79.3411 34.4291C79.3576 34.7898 79.6523 35.2542 79.9588 35.464C82.578 37.251 84.1717 39.7406 85.0558 42.73C86.0554 46.1154 85.6593 49.3782 84.0468 52.4878C83.7026 53.1503 83.6507 53.6195 84.2967 54.0509C84.9379 54.48 85.5839 54.902 86.2181 55.3405C86.4821 55.5244 86.7367 55.7295 86.963 55.9558C90.7681 59.7679 94.5732 63.5801 98.3688 67.3993C99.8022 68.8421 99.8659 71.0205 98.5433 72.4138C97.1806 73.8472 94.9174 73.9557 93.4722 72.527C89.5139 68.6205 85.5839 64.6858 81.6916 60.7157C80.9772 59.9872 80.4845 59.0395 79.881 58.2002C79.5273 57.7098 79.1431 57.7216 78.5914 57.9927C73.7749 60.3715 69.1235 60.065 64.6253 57.1039C64.1491 56.7904 63.4937 56.597 62.9232 56.597C44.4164 56.5711 25.9097 56.5358 7.40532 56.6135C4.25564 56.6253 2.35782 54.381 2.47334 51.6981C2.60064 48.7629 2.53699 45.8207 2.5252 42.8832C2.51577 40.8298 2.42383 38.7764 2.42383 36.7229C2.42854 32.2766 2.48041 27.8326 2.4922 23.3863C2.50634 19.0248 2.58414 14.661 2.46391 10.3043C2.38846 7.58133 3.95387 5.17899 7.59157 5.20728C18.7121 5.29215 29.835 5.23793 40.9555 5.23793C40.9508 5.24028 40.9508 5.24028 40.9508 5.24264ZM61.6312 54.3362C61.5298 54.0886 61.4945 53.9519 61.4238 53.8364C59.4434 50.649 58.4886 47.247 59.434 43.5103C59.6179 42.7795 59.9173 41.365 60.7377 39.7972C61.1833 38.9485 62.6261 36.2821 65.764 34.5658C67.0984 33.835 68.2465 33.5473 68.5789 33.4672C70.762 32.9509 74.4421 32.8071 76.1207 33.5898C76.2739 33.6605 76.7737 33.9104 77.0448 33.7076C77.1816 33.6039 77.1839 33.3234 77.1839 32.7576C77.1863 27.7784 77.1839 22.7993 77.1839 17.8201C77.1839 16.4363 77.1816 16.4292 75.826 16.4292C68.8547 16.4268 61.8811 16.4292 54.9099 16.4292C38.5532 16.4292 22.1966 16.4292 5.83991 16.4339C4.63992 16.4339 4.64228 16.4504 4.64699 17.5985C4.68236 25.8617 4.72479 34.1273 4.73894 42.3905C4.74365 45.5378 4.67528 48.6851 4.65878 51.8324C4.64935 53.6383 5.42498 54.4163 7.22379 54.4163C24.9926 54.421 42.7614 54.4234 60.5302 54.4234C60.8697 54.421 61.2069 54.3715 61.6312 54.3362ZM40.8306 14.2532C40.8306 14.2555 40.8306 14.2579 40.8306 14.2603C52.4816 14.2603 64.1302 14.2603 75.7812 14.2603C75.9863 14.2603 76.1938 14.2532 76.3989 14.2579C76.9458 14.272 77.2028 14.0316 77.1934 13.461C77.1745 12.3719 77.1934 11.2803 77.191 10.1911C77.1839 8.166 76.3659 7.35264 74.3455 7.35264C52.1633 7.355 29.9788 7.35736 7.79667 7.35736C7.47369 7.35736 7.14835 7.34321 6.82537 7.36679C5.51457 7.47288 4.66585 8.36639 4.64699 9.68426C4.63049 10.8041 4.64935 11.9239 4.64935 13.0438C4.64935 14.2508 4.64935 14.2532 5.87527 14.2532C17.531 14.2532 29.1796 14.2532 40.8306 14.2532ZM72.4547 35.1764C66.2638 35.556 61.063 39.4931 61.3412 47.2305C61.5369 52.6104 66.2001 57.2831 72.3274 57.4505C77.9384 57.6037 83.7639 51.915 83.4597 46.2686C83.1155 39.8656 78.6433 35.4876 72.4547 35.1764ZM97.3174 69.705C97.084 69.3773 96.8506 69.0496 96.6172 68.7219C93.1752 65.3105 89.7355 61.8968 86.2935 58.4854C86.1096 58.4359 85.7913 58.3369 85.4353 58.1436C84.7705 57.7782 83.8959 57.0356 83.231 56.0312C83.0637 55.7766 82.8397 55.4041 82.4201 55.2839C82.1371 55.2037 81.8849 55.2556 81.8094 55.3028C80.9442 55.845 80.9395 56.1633 81.6562 56.9153C82.3234 57.6132 82.9882 58.3181 83.5965 59.0654C83.969 59.5251 84.1528 60.1546 84.5607 60.5672C87.8589 63.9172 91.1901 67.2343 94.5166 70.5561C94.7642 70.8036 95.0306 71.0512 95.3347 71.2138C96.24 71.6995 97.3292 71.0134 97.3174 69.705Z" fill="#BEBEBE"/>
<path id="Vector_2" d="M10.4019 11.9941C9.72996 11.9965 9.22781 11.5156 9.21366 10.8554C9.19951 10.1435 9.72053 9.6083 10.4066 9.62952C11.0502 9.64838 11.5594 10.1765 11.5571 10.8224C11.5571 11.4873 11.0596 11.9918 10.4019 11.9941Z" fill="#BEBEBE"/>
<path id="Vector_3" d="M19.3674 10.8377C19.3627 11.5001 18.8605 11.9976 18.1957 11.9952C17.5262 11.9952 17.0287 11.5049 17.024 10.84C17.0169 10.1445 17.5615 9.59996 18.2358 9.62589C18.8747 9.64946 19.3721 10.1823 19.3674 10.8377Z" fill="#BEBEBE"/>
<path id="Vector_4" d="M14.301 12.0059C13.6527 12.0083 13.134 11.5014 13.1223 10.8507C13.1105 10.1576 13.6527 9.60828 14.327 9.6295C14.98 9.65072 15.4633 10.1623 15.4609 10.8318C15.4562 11.4825 14.9446 12.0012 14.301 12.0059Z" fill="#BEBEBE"/>
<path id="Vector_5" d="M76.7759 51.2514C76.5355 51.2773 76.3021 51.1689 75.6726 50.5583C73.8078 48.75 73.3669 48.2479 73.3669 48.2479C72.9661 47.8188 72.6809 47.8377 72.2895 48.2549C71.5446 49.0471 70.7642 49.8086 69.9862 50.5701C69.3497 51.1924 68.6542 51.2797 68.2086 50.7775C67.6522 50.148 67.9092 49.587 68.4184 49.0754C69.1233 48.3657 69.7952 47.6208 70.5473 46.963C71.1273 46.4538 71.0471 46.0719 70.5615 45.5768C69.7811 44.7823 69.0338 43.9548 68.2817 43.132C67.8574 42.6676 67.6947 42.13 68.1968 41.6444C68.6754 41.1799 69.2719 40.9513 69.8283 41.5289C70.5615 42.2903 71.2333 43.1131 71.9595 43.8793C72.7375 44.6998 72.8624 44.6833 73.6003 43.8888C74.3194 43.1179 75.0384 42.3446 75.774 41.5878C76.2054 41.1422 76.7146 40.9513 77.2616 41.3851C77.7708 41.7905 77.8604 42.6228 77.4031 43.1155C76.6251 43.9571 75.8188 44.7799 74.9748 45.5532C74.4514 46.0341 74.4726 46.3736 74.9795 46.8428C75.7999 47.6019 76.6133 48.3775 77.3347 49.2262C77.5586 49.4927 77.7496 49.9877 77.5987 50.4805C77.4832 50.8435 77.1602 51.2113 76.7759 51.2514Z" fill="#BEBEBE"/>
</g>
</g>
</svg>
