<svg width="16" height="16" viewBox="0 0 16 16" fill="none" xmlns="http://www.w3.org/2000/svg">
<path id="Vector" d="M4.45164 1.66954L3.34364 0.561536C1.48407 1.97946 0.259843 4.16447 0.151367 6.64391H1.70102C1.81724 4.59062 2.871 2.79303 4.45164 1.66954ZM14.0517 6.64391H15.6014C15.4851 4.16447 14.2609 1.97946 12.4091 0.561536L11.3088 1.66954C12.874 2.79303 13.9355 4.59062 14.0517 6.64391ZM12.5253 7.03132C12.5253 4.65261 11.2546 2.66131 9.0386 2.13443V1.60755C9.0386 0.964445 8.51947 0.445312 7.87637 0.445312C7.23326 0.445312 6.71413 0.964445 6.71413 1.60755V2.13443C4.49038 2.66131 3.22742 4.64486 3.22742 7.03132V10.9054L1.67777 12.4551V13.2299H14.075V12.4551L12.5253 10.9054V7.03132ZM7.87637 15.5544C7.98484 15.5544 8.08557 15.5466 8.1863 15.5234C8.68993 15.4149 9.10059 15.074 9.30204 14.6091C9.37953 14.4231 9.41827 14.2217 9.41827 14.0047H6.31897C6.32672 14.857 7.01631 15.5544 7.87637 15.5544Z" fill="#9E9E9E"/>
</svg>
