<svg width="15" height="13" viewBox="0 0 15 13" fill="none" xmlns="http://www.w3.org/2000/svg">
<path id="Vector" d="M7.30113 3.40522L2.5002 7.35934V11.627C2.5002 11.7375 2.54409 11.8435 2.62223 11.9216C2.70036 11.9997 2.80633 12.0436 2.91683 12.0436L5.83484 12.0361C5.94497 12.0355 6.05041 11.9914 6.1281 11.9133C6.20578 11.8352 6.24939 11.7296 6.24939 11.6194V9.12718C6.24939 9.01668 6.29328 8.9107 6.37142 8.83257C6.44955 8.75444 6.55552 8.71054 6.66602 8.71054H8.33256C8.44306 8.71054 8.54903 8.75444 8.62717 8.83257C8.7053 8.9107 8.7492 9.01668 8.7492 9.12718V11.6176C8.74902 11.6724 8.75967 11.7267 8.78053 11.7774C8.8014 11.8281 8.83206 11.8742 8.87076 11.9131C8.90947 11.9519 8.95546 11.9827 9.00609 12.0037C9.05672 12.0247 9.11101 12.0355 9.16583 12.0355L12.0828 12.0436C12.1933 12.0436 12.2993 11.9997 12.3774 11.9216C12.4555 11.8435 12.4994 11.7375 12.4994 11.627V7.35648L7.69954 3.40522C7.64311 3.35973 7.57281 3.33493 7.50033 3.33493C7.42785 3.33493 7.35756 3.35973 7.30113 3.40522ZM14.8847 6.09277L12.7077 4.29838V0.691626C12.7077 0.608753 12.6748 0.529273 12.6162 0.470673C12.5576 0.412072 12.4781 0.37915 12.3953 0.37915H10.937C10.8542 0.37915 10.7747 0.412072 10.7161 0.470673C10.6575 0.529273 10.6246 0.608753 10.6246 0.691626V2.58237L8.29324 0.664285C8.06951 0.480179 7.78877 0.379518 7.49903 0.379518C7.20929 0.379518 6.92855 0.480179 6.70482 0.664285L0.113402 6.09277C0.0817609 6.11893 0.0555827 6.15106 0.0363633 6.18733C0.017144 6.2236 0.00526021 6.26331 0.00139108 6.30418C-0.00247805 6.34504 0.00174327 6.38627 0.0138138 6.42551C0.0258844 6.46475 0.0455677 6.50122 0.0717389 6.53284L0.73575 7.34007C0.76185 7.37181 0.793953 7.39809 0.830222 7.4174C0.86649 7.43671 0.906211 7.44868 0.947112 7.45263C0.988013 7.45657 1.02929 7.45241 1.06858 7.44038C1.10787 7.42835 1.1444 7.40868 1.17608 7.38252L7.30113 2.33759C7.35756 2.29211 7.42785 2.2673 7.50033 2.2673C7.57281 2.2673 7.64311 2.29211 7.69954 2.33759L13.8248 7.38252C13.8565 7.40869 13.8929 7.42837 13.9322 7.44044C13.9714 7.45251 14.0126 7.45674 14.0535 7.45287C14.0944 7.449 14.1341 7.43711 14.1704 7.41789C14.2066 7.39867 14.2388 7.3725 14.2649 7.34085L14.9289 6.53362C14.9551 6.50182 14.9747 6.46516 14.9866 6.42575C14.9985 6.38634 15.0026 6.34496 14.9984 6.304C14.9943 6.26303 14.9822 6.22328 14.9626 6.18703C14.9431 6.15078 14.9166 6.11875 14.8847 6.09277Z" fill="#9E9E9E"/>
</svg>
